# xmcd CD database file
#
# Track frame offsets:
#	150
#	22766
#	47222
#	58292
#	78230
#	96035
#	110737
#	125807
#	135198
#	159507
#	180930
#	192311
#	205131
#	216646
#	234390
#	259592
#	293887
#	304812
#	316576
#	330789
#
# Disc length: 4606 seconds
#
# Revision: 0
# Processed by: cddbd v1.5.2PL0 Copyright (c) Steve Scherf et al.
# Submitted via: CDex 1.51
#
DISCID=1211fc14
DTITLE=Vari - Jazz Emotions
DYEAR=2008
DGENRE=Jazz
TTITLE0=Eliane Elias - Baubles, Bangles and Beads
TTITLE1=Antonio Carlos Jobim - Brazil
TTITLE2=João Donato - Little Boat (O Barquinho)
TTITLE3=Gearge Benson - Bossa Rocka
TTITLE4=Stan Getz feat. João Gilberto - Eu Vim Da Bahia
TTITLE5=Lisa Ekdahl - Daybreak
TTITLE6=Toots Thielemans - Samba de Uma Nota Sò
TTITLE7=Mario Castro Neves and Samba S.A. - Ta Por Fora
TTITLE8=Deodato - Baubles, Bangles and Beads
TTITLE9=Paul Desmond - Bossa Antigua
TTITLE10=João Donato - Amazon (Amazonas)
TTITLE11=Raul De Souza - Estamos Aì
TTITLE12=Mario Castro Neves and Samba S.A. - Corcovado
TTITLE13=Sarah Vaughan - Wanting More
TTITLE14=George Duke - Brazilian Sugar
TTITLE15=Tom Harrell - Petals Danse
TTITLE16=Flora Purim - Reza
TTITLE17=Tamba Trio - Visgo de Jaca
TTITLE18=Milton Banana - Oi Compadre
TTITLE19=Lisa Ekdahl - L'Aurore (version française)
EXTD=YEAR: 2008
EXTT0=
EXTT1=
EXTT2=
EXTT3=
EXTT4=
EXTT5=
EXTT6=
EXTT7=
EXTT8=
EXTT9=
EXTT10=
EXTT11=
EXTT12=
EXTT13=
EXTT14=
EXTT15=
EXTT16=
EXTT17=
EXTT18=
EXTT19=
PLAYORDER=
